<svg xmlns="http://www.w3.org/2000/svg" width="32.077" height="32.077" viewBox="0 0 32.077 32.077"><path d="M16.039,32.077A16.039,16.039,0,1,1,32.077,16.039,16.057,16.057,0,0,1,16.039,32.077Zm0-29.786A13.748,13.748,0,1,0,29.786,16.039,13.763,13.763,0,0,0,16.039,2.291Zm0,0" fill="#707070"/><path d="M158.889,160.036a1.141,1.141,0,0,1-.81-.336l-11.456-11.456a1.145,1.145,0,0,1,1.62-1.62L159.7,158.08a1.146,1.146,0,0,1-.81,1.956Zm0,0" transform="translate(-137.122 -137.123)" fill="#707070"/><path d="M147.431,160.034a1.146,1.146,0,0,1-.81-1.956l11.456-11.456a1.145,1.145,0,1,1,1.62,1.62L148.241,159.7A1.141,1.141,0,0,1,147.431,160.034Zm0,0" transform="translate(-137.121 -137.122)" fill="#707070"/></svg>