<svg xmlns="http://www.w3.org/2000/svg" width="425.721" height="382.709" viewBox="0 0 425.721 382.709"><g transform="translate(-519 -477.048)"><path d="M157.965,0A157.965,157.965,0,1,1,0,157.965,157.965,157.965,0,0,1,157.965,0Z" transform="translate(519 809.151) rotate(-80.783)" fill="#d63131"/><g transform="translate(586.327 587.964)"><path d="M48.379,283.214,191.589,396.15,406.773,208.959Z" transform="translate(-48.379 -208.959)" fill="#f8f8f8"/><path d="M282.193,222.786l-205.877,94,.777,76.136,49.721-37.291L99.623,329.221Z" transform="translate(-14.908 -192.393)" fill="#cbc3c3"/><path d="M99.3,329.1,281.09,223.051,89.877,322.688,76.67,392.609l39.816-46.614Z" transform="translate(-14.484 -192.075)" fill="#c4c4c4" opacity="0.42" style="mix-blend-mode:multiply;isolation:isolate"/></g><g transform="translate(756.005 772.697)"><path d="M176.491,320.784c-.877,0-21.469-.3-21.469-26.52a1.263,1.263,0,1,0-2.526,0c0,26.145-20.594,26.516-21.471,26.52a1.263,1.263,0,0,0-.123,2.519c17.743,1.774,21.078,15.167,21.594,22.179v.259a27.785,27.785,0,0,0,.007,4.214,1.051,1.051,0,0,0,.055.185,1.137,1.137,0,0,0,.062.213,1.188,1.188,0,0,0,.134.207,1.226,1.226,0,0,0,.13.169,3.288,3.288,0,0,0,.38.255,1.259,1.259,0,0,0,.257.064.936.936,0,0,0,.176.044l.062,0h0l.062,0a.936.936,0,0,0,.176-.044,1.258,1.258,0,0,0,.257-.064,1.359,1.359,0,0,0,.18-.11,1.333,1.333,0,0,0,.2-.145,2.936,2.936,0,0,0,.264-.376,1.327,1.327,0,0,0,.064-.213,1.281,1.281,0,0,0,.053-.185,27.333,27.333,0,0,0,.011-4.1,29.9,29.9,0,0,1,1.807-8.518c3.167-8.316,9.823-13.037,19.785-14.033a1.263,1.263,0,0,0-.128-2.519Z" transform="translate(-120.544 -293)" fill="#fff"/><path d="M139.31,330.263a2.9,2.9,0,1,1-2.906-2.906A2.906,2.906,0,0,1,139.31,330.263Z" transform="translate(-116.071 -251.836)" fill="#fff"/><path d="M155.167,317.047a2.9,2.9,0,1,1-2.9-2.9A2.906,2.906,0,0,1,155.167,317.047Z" transform="translate(-97.072 -267.668)" fill="#fff"/><path d="M134.287,317.18a4.358,4.358,0,1,1-4.357-4.359A4.359,4.359,0,0,1,134.287,317.18Z" transform="translate(-125.571 -269.252)" fill="#fff"/></g><g transform="translate(673.575 477.048)"><path d="M138.991,192.784c-.877,0-21.469-.3-21.469-26.52a1.263,1.263,0,1,0-2.526,0c0,26.145-20.594,26.516-21.471,26.52A1.263,1.263,0,0,0,93.4,195.3c17.743,1.774,21.078,15.167,21.594,22.179v.259a27.777,27.777,0,0,0,.007,4.214,1.051,1.051,0,0,0,.055.185,1.132,1.132,0,0,0,.062.213,1.19,1.19,0,0,0,.134.207,1.235,1.235,0,0,0,.13.169,3.316,3.316,0,0,0,.38.255,1.258,1.258,0,0,0,.257.064.936.936,0,0,0,.176.044l.062,0h0l.062,0a.937.937,0,0,0,.176-.044,1.258,1.258,0,0,0,.257-.064,1.365,1.365,0,0,0,.18-.11,1.328,1.328,0,0,0,.2-.145,2.936,2.936,0,0,0,.264-.376,1.329,1.329,0,0,0,.064-.213,1.273,1.273,0,0,0,.053-.185,27.33,27.33,0,0,0,.011-4.1,29.906,29.906,0,0,1,1.807-8.518c3.168-8.318,9.823-13.037,19.785-14.033a1.263,1.263,0,0,0-.128-2.519Z" transform="translate(-83.044 -150.712)" fill="#fff"/><path d="M101.81,202.263a2.9,2.9,0,1,1-2.906-2.906A2.906,2.906,0,0,1,101.81,202.263Z" transform="translate(-78.571 -109.548)" fill="#fff"/><path d="M117.667,189.047a2.9,2.9,0,1,1-2.9-2.9A2.906,2.906,0,0,1,117.667,189.047Z" transform="translate(-59.572 -125.38)" fill="#fff"/><path d="M122.81,208.083a2.9,2.9,0,1,1-2.906-2.9A2.9,2.9,0,0,1,122.81,208.083Z" transform="translate(-53.41 -102.572)" fill="#fff"/><path d="M96.787,189.18a4.358,4.358,0,1,1-4.357-4.359A4.358,4.358,0,0,1,96.787,189.18Z" transform="translate(-88.071 -126.964)" fill="#fff"/><path d="M124.231,162.857a4.357,4.357,0,1,1-4.357-4.357A4.356,4.356,0,0,1,124.231,162.857Z" transform="translate(-55.186 -158.5)" fill="#fff"/><path d="M134.249,175.375a4.357,4.357,0,1,1-4.357-4.357A4.356,4.356,0,0,1,134.249,175.375Z" transform="translate(-43.183 -143.502)" fill="#fff"/></g></g></svg>