<?xml version="1.0" encoding="UTF-8" standalone="no"?>
<svg
   xmlns:dc="http://purl.org/dc/elements/1.1/"
   xmlns:cc="http://creativecommons.org/ns#"
   xmlns:rdf="http://www.w3.org/1999/02/22-rdf-syntax-ns#"
   xmlns:svg="http://www.w3.org/2000/svg"
   xmlns="http://www.w3.org/2000/svg"
   xmlns:sodipodi="http://sodipodi.sourceforge.net/DTD/sodipodi-0.dtd"
   xmlns:inkscape="http://www.inkscape.org/namespaces/inkscape"
   height="39"
   width="125"
   viewBox="0 0 125 39"
   version="1.1"
   id="svg827"
   sodipodi:docname="logo_foot.svg"
   inkscape:version="0.92.3 (2405546, 2018-03-11)">
  <metadata
     id="metadata833">
    <rdf:RDF>
      <cc:Work
         rdf:about="">
        <dc:format>image/svg+xml</dc:format>
        <dc:type
           rdf:resource="http://purl.org/dc/dcmitype/StillImage" />
        <dc:title></dc:title>
      </cc:Work>
    </rdf:RDF>
  </metadata>
  <defs
     id="defs831" />
  <sodipodi:namedview
     pagecolor="#ffffff"
     bordercolor="#666666"
     borderopacity="1"
     objecttolerance="10"
     gridtolerance="10"
     guidetolerance="10"
     inkscape:pageopacity="0"
     inkscape:pageshadow="2"
     inkscape:window-width="1920"
     inkscape:window-height="1017"
     id="namedview829"
     showgrid="false"
     fit-margin-top="0"
     fit-margin-left="0"
     fit-margin-right="0"
     fit-margin-bottom="0"
     inkscape:zoom="1.8848168"
     inkscape:cx="203.85354"
     inkscape:cy="7.6109988"
     inkscape:window-x="-8"
     inkscape:window-y="-8"
     inkscape:window-maximized="1"
     inkscape:current-layer="svg827" />
  <path
     d="m 123.23902,3.384767 c -1.2569,-1.537415 -3.23391,-2.525533 -5.45641,-2.525533 -3.79691,0 -6.87371,2.88457 -6.87371,6.444252 0,0.767173 0.14402,1.50059 0.40261,2.18184 -0.22586,0.202533 -0.37642,0.484853 -0.39933,0.800928 -0.0491,0.675113 0.49425,1.264301 1.21435,1.310331 0.16693,0.01228 0.33059,-0.0092 0.48116,-0.05217 1.26018,1.350224 3.10953,2.20332 5.17492,2.20332 3.7969,0 6.87371,-2.88457 6.87371,-6.444252 0,-0.604532 -0.0884,-1.187583 -0.25532,-1.743017 0.32733,-0.202533 0.5499,-0.54009 0.57936,-0.932882 0.0491,-0.675112 -0.49425,-1.264301 -1.21435,-1.310331 -0.1833,-0.01228 -0.36333,0.01227 -0.52699,0.06751 z m -7.04718,7.908018 c -0.36005,0.02148 -0.67428,-0.233221 -0.70046,-0.570777 -0.0229,-0.337556 0.24876,-0.63215 0.60881,-0.6567 0.36005,-0.02148 0.67428,0.233221 0.70046,0.570777 0.0229,0.337556 -0.24876,0.63215 -0.60881,0.6567 z m 0,-2.148084 c -0.36005,0.02148 -0.67428,-0.233221 -0.70046,-0.570777 -0.0229,-0.337556 0.24876,-0.63215 0.60881,-0.6567 0.36005,-0.02148 0.67428,0.233221 0.70046,0.570777 0.0229,0.337556 -0.24876,0.63215 -0.60881,0.6567 z m -2.29124,0.920607 c -0.36005,0.02148 -0.67427,-0.23322 -0.70046,-0.570776 -0.0229,-0.337556 0.24876,-0.632151 0.60881,-0.6567 0.36005,-0.02148 0.67428,0.23322 0.70047,0.570776 0.0229,0.337556 -0.24877,0.632151 -0.60882,0.6567 z m 0,-2.148084 c -0.36005,0.02148 -0.67427,-0.23322 -0.70046,-0.570776 -0.0229,-0.337556 0.24876,-0.632151 0.60881,-0.6567 0.36005,-0.02148 0.67428,0.23322 0.70047,0.570776 0.0229,0.337556 -0.24877,0.632151 -0.60882,0.6567 z M 5.9670322,11.268235 V 0 H 2.2912357 V 14.361477 H 14.981408 V 11.268235 Z M 65.39187,24.638525 H 58.262849 V 39 h 7.129021 c 4.219145,0 7.659268,-3.22519 7.659268,-7.180737 0,-3.977024 -4.749401,-7.180738 -8.968551,-7.180738 z M 65.064548,35.68581 h -3.125897 v -7.754579 h 3.102986 c 1.109611,0 2.170126,0.395861 2.945871,1.12621 0.779027,0.751829 1.201265,1.721535 1.201265,2.761822 0,1.037217 -0.422238,2.009997 -1.201265,2.740337 -0.775745,0.72728 -1.81335,1.12621 -2.92296,1.12621 z M 33.687711,0 v 14.361477 h 3.675797 V 0 Z M 63.120271,4.928319 54.989661,0 v 14.361477 h 3.675794 v -8.02156 l 4.408991,2.69738 4.546467,-2.718861 v 8.043041 H 71.29671 V 0 Z m 26.967843,3.79904 h 5.963763 V 5.634118 H 90.088114 V 3.093241 h 7.024278 V 0 H 86.412321 V 14.361477 H 97.112392 V 11.268235 H 90.088114 Z M 8.1306135,29.477851 0,24.549533 V 38.91101 h 3.6757967 v -8.021561 l 4.4089923,2.697381 4.546466,-2.718861 v 8.043041 h 3.675797 V 24.549533 Z M 35.425778,33.27689 h 5.963759 v -3.09324 h -5.963759 v -2.540876 h 7.024274 V 24.549533 H 31.749981 V 38.91101 H 42.450052 V 35.81777 H 35.425778 Z M 89.986649,24.549533 V 38.91101 h 3.675794 V 24.549533 Z M 120.75794,38.91101 H 125 l -8.22553,-14.361477 -8.24845,14.361477 h 4.24206 l 1.10634,-2.00999 h 5.77391 z m -5.3975,-4.70737 1.41403,-2.516331 1.3911,2.516331 z m 0,0"
     id="path825"
     style="fill:#ffffff;fill-rule:evenodd;stroke-width:0.3169294"
     inkscape:connector-curvature="0" />
</svg>
