<svg xmlns="http://www.w3.org/2000/svg" width="36.477" height="36.478" viewBox="0 0 36.477 36.478"><g transform="translate(-1040.891 -203.631)"><path d="M1059.13,240.108a18.239,18.239,0,1,1,18.238-18.238A18.26,18.26,0,0,1,1059.13,240.108Zm0-34.745a16.506,16.506,0,1,0,16.505,16.506A16.525,16.525,0,0,0,1059.13,205.364Zm6.149,9.106a1.35,1.35,0,1,0,1.35,1.35A1.35,1.35,0,0,0,1065.279,214.469Zm-6,1.731a5.669,5.669,0,1,0,5.67,5.67A5.676,5.676,0,0,0,1059.279,216.2Zm0,9.3a3.632,3.632,0,1,1,3.632-3.632A3.636,3.636,0,0,1,1059.279,225.5Zm11.44-8.344a6.916,6.916,0,0,0-6.916-6.915h-9.127a6.915,6.915,0,0,0-6.915,6.915v9.127a6.915,6.915,0,0,0,6.915,6.915h9.127a6.915,6.915,0,0,0,6.916-6.915Zm-2.166,9.127a4.749,4.749,0,0,1-4.75,4.749h-9.127a4.749,4.749,0,0,1-4.749-4.749v-9.127a4.749,4.749,0,0,1,4.749-4.749h9.127a4.749,4.749,0,0,1,4.75,4.749Z" fill="#fff"/></g></svg>