<svg xmlns="http://www.w3.org/2000/svg" width="36.65" height="36.65" viewBox="0 0 36.65 36.65"><g transform="translate(-424.891 -138.061)"><g transform="translate(424.891 138.061)"><path d="M473.084,369.711a18.325,18.325,0,1,1,18.325-18.325A18.346,18.346,0,0,1,473.084,369.711Zm0-34.677a16.353,16.353,0,1,0,16.353,16.353A16.372,16.372,0,0,0,473.084,335.034Z" transform="translate(-454.759 -333.061)" fill="#fff"/><path d="M5.83,14.258,23.851,7.309c.836-.3,1.567.2,1.3,1.469l0,0L22.08,23.232c-.227,1.025-.836,1.274-1.688.791L15.719,20.58l-2.254,2.171a1.178,1.178,0,0,1-.942.459l.332-4.755,8.66-7.824c.377-.332-.084-.519-.581-.188l-10.7,6.738L5.618,15.742c-1-.318-1.023-1,.212-1.484Z" transform="translate(2.308 3.352)" fill="#fff"/></g></g></svg>