<svg xmlns="http://www.w3.org/2000/svg" width="36.477" height="36.478" viewBox="0 0 36.477 36.478"><g transform="translate(-1268 -7078)"><path d="M1204.629,213.983c-.386-.487-.275-.7,0-1.14,0,0,3.19-4.406,3.518-5.9h0c.163-.544,0-.944-.788-.944h-2.609a1.12,1.12,0,0,0-1.134.727,21.346,21.346,0,0,1-3.208,5.241c-.607.6-.887.786-1.218.786-.163,0-.417-.191-.417-.735v-5.076c0-.652-.186-.944-.736-.944h-4.1a.624.624,0,0,0-.664.588c0,.618.94.761,1.037,2.5v3.776c0,.827-.15.979-.483.979-.887,0-3.04-3.193-4.315-6.847-.258-.709-.509-1-1.178-1h-2.61c-.745,0-.895.343-.895.727,0,.678.887,4.05,4.124,8.5,2.158,3.041,5.2,4.688,7.961,4.688,1.662,0,1.864-.366,1.864-1,0-2.906-.15-3.18.682-3.18.386,0,1.05.191,2.6,1.658,1.773,1.739,2.064,2.518,3.057,2.518h2.609c.744,0,1.121-.366.9-1.088C1208.133,217.315,1204.78,214.192,1204.629,213.983Z" transform="translate(89.174 6884)" fill="#fff"/><g transform="translate(227.109 6874.369)"><path d="M1059.13,240.108a18.239,18.239,0,1,1,18.238-18.238A18.26,18.26,0,0,1,1059.13,240.108Zm0-34.745a16.506,16.506,0,1,0,16.505,16.506A16.525,16.525,0,0,0,1059.13,205.364Z" fill="#fff"/></g></g></svg>