<svg xmlns="http://www.w3.org/2000/svg" width="36.651" height="36.65" viewBox="0 0 36.651 36.65"><g transform="translate(-952 -6775.879)"><g transform="translate(952 6775.879)"><path d="M391.133,175.079a18.325,18.325,0,1,1,18.326-18.326A18.347,18.347,0,0,1,391.133,175.079Zm0-34.682a16.357,16.357,0,1,0,16.357,16.357A16.376,16.376,0,0,0,391.133,140.4Z" transform="translate(-372.808 -138.429)" fill="#fff"/></g><g transform="translate(957.342 6782.709)"><path d="M23.705,14.244c.734-6.179-.353-10.08-2.313-11.845h0C18.229-.615,7.544-1.061,3.759,2.534c-1.7,1.758-2.3,4.339-2.364,7.534S1.251,19.25,6.829,20.874h.005l-.005,2.48s-.038,1,.6,1.207c.734.238,1.066-.229,3.35-2.956a20.893,20.893,0,0,0,7.084-.538c.771-.258,5.133-.836,5.839-6.822ZM10.783,19.878A41.045,41.045,0,0,1,8.3,23.212c-.246.254-.516.231-.512-.274L7.78,19.574C3.05,18.218,3.047,12.811,3.1,10.144S3.638,5.292,5.077,3.82C8.4.707,17.766,1.4,20.153,3.646c2.918,2.587,1.879,9.895,1.885,10.144-.6,5-4.135,5.314-4.785,5.53A22.307,22.307,0,0,1,10.783,19.878Z" transform="translate(0 0)" fill="#fff"/><path d="M12.229,4.3a.31.31,0,0,0,0,.62c3.062.024,5.585,2.158,5.612,6.074a.3.3,0,1,0,.6-.005h0c-.033-4.219-2.787-6.665-6.211-6.689Z" transform="translate(0.267 0.109)" fill="#fff"/><path d="M16.245,10.3a.3.3,0,1,0,.6.014,4.153,4.153,0,0,0-4.08-4.445.311.311,0,0,0-.042.62A3.54,3.54,0,0,1,16.245,10.3Z" transform="translate(0.28 0.149)" fill="#fff"/><path d="M15.756,12.971a.947.947,0,0,0-1.235.177l-.446.577a.8.8,0,0,1-.65.254A5.951,5.951,0,0,1,9.508,9.929a.862.862,0,0,1,.245-.673l.558-.461a1.027,1.027,0,0,0,.171-1.279A13.324,13.324,0,0,0,8.954,5.31a.825.825,0,0,0-1.109-.188H7.836c-.887.519-1.858,1.49-1.547,2.489.53,1.054,1.5,4.414,4.609,6.952a17.722,17.722,0,0,0,4.748,2.715l.009.014c.966.322,1.9-.687,2.406-1.6v-.007a.879.879,0,0,0-.176-1.134,12.087,12.087,0,0,0-2.128-1.581Z" transform="translate(0.123 0.126)" fill="#fff"/><path d="M13.176,8.119c.985.057,1.463.572,1.514,1.629a.3.3,0,1,0,.6-.029A2.058,2.058,0,0,0,13.209,7.5a.311.311,0,0,0-.033.62Z" transform="translate(0.291 0.19)" fill="#fff"/></g></g></svg>