<svg xmlns="http://www.w3.org/2000/svg" width="25" height="25" viewBox="0 0 25 25"><path d="M467.259,358.061a12.5,12.5,0,1,1,12.5-12.5A12.514,12.514,0,0,1,467.259,358.061Zm0-23.654a11.155,11.155,0,1,0,11.155,11.155A11.168,11.168,0,0,0,467.259,334.407Z" transform="translate(-454.759 -333.061)" fill="#242424"/><path d="M5.417,11.189,15.574,7.272c.471-.17.883.115.73.828h0l-1.729,8.148c-.128.578-.471.718-.952.446L10.99,14.752,9.72,15.976a.664.664,0,0,1-.531.259l.187-2.68,4.881-4.41c.212-.187-.047-.292-.327-.106L7.9,12.836l-2.6-.811c-.564-.179-.577-.564.119-.837Z" transform="translate(1.082 1.079)" fill="#242424"/></svg>