<svg xmlns="http://www.w3.org/2000/svg" width="25" height="25" viewBox="0 0 25 25"><g transform="translate(0 0)"><path d="M385.308,163.429a12.5,12.5,0,1,1,12.5-12.5A12.514,12.514,0,0,1,385.308,163.429Zm0-23.657a11.157,11.157,0,1,0,11.157,11.157A11.17,11.17,0,0,0,385.308,139.771Z" transform="translate(-372.808 -138.429)" fill="#242424"/></g><g transform="translate(4.583 4.644)"><path d="M16.613,9.715c.5-4.216-.241-6.878-1.578-8.082h0C12.876-.424,5.586-.728,3,1.725c-1.16,1.2-1.568,2.96-1.613,5.14s-.1,6.265,3.708,7.373h0l0,1.692s-.026.686.412.823c.5.162.728-.156,2.285-2.017a14.256,14.256,0,0,0,4.833-.367c.526-.176,3.5-.57,3.984-4.655ZM7.8,13.559a28,28,0,0,1-1.7,2.275c-.168.173-.352.157-.349-.187l0-2.3C2.52,12.426,2.517,8.737,2.552,6.917A6.114,6.114,0,0,1,3.9,2.6C6.168.478,12.56.953,14.189,2.484,16.18,4.249,15.471,9.235,15.475,9.4c-.409,3.41-2.821,3.626-3.265,3.773A15.221,15.221,0,0,1,7.8,13.559Z" transform="translate(-1.38 0.013)" fill="#242424"/><path d="M12.135,4.3a.212.212,0,0,0,0,.423c2.09.016,3.81,1.473,3.829,4.144a.2.2,0,1,0,.409,0h0c-.022-2.879-1.9-4.548-4.238-4.564Z" transform="translate(-4.551 -1.282)" fill="#242424"/><path d="M15.038,8.894a.2.2,0,1,0,.409.01,2.833,2.833,0,0,0-2.783-3.033.212.212,0,0,0-.029.423A2.415,2.415,0,0,1,15.038,8.894Z" transform="translate(-4.705 -1.755)" fill="#242424"/><path d="M12.729,10.435a.646.646,0,0,0-.843.121l-.3.394a.544.544,0,0,1-.444.173A4.06,4.06,0,0,1,8.466,8.36.588.588,0,0,1,8.633,7.9l.381-.315a.7.7,0,0,0,.117-.872A9.091,9.091,0,0,0,8.088,5.208a.563.563,0,0,0-.757-.128H7.325C6.72,5.434,6.058,6.1,6.27,6.779a11.444,11.444,0,0,0,3.144,4.744,12.092,12.092,0,0,0,3.24,1.852l.006.01c.659.22,1.3-.469,1.642-1.092v0a.6.6,0,0,0-.12-.774,8.247,8.247,0,0,0-1.452-1.079Z" transform="translate(-2.837 -1.49)" fill="#242424"/><path d="M13.086,7.922c.672.039,1,.39,1.033,1.112a.2.2,0,1,0,.409-.02A1.4,1.4,0,0,0,13.109,7.5.212.212,0,0,0,13.086,7.922Z" transform="translate(-4.839 -2.244)" fill="#242424"/></g></svg>